<svg xmlns="http://www.w3.org/2000/svg" viewBox="0 0 48 48" width="48px" height="48px">
  <path fill="#43A047" d="M41,10H7c-1.1,0-2,0.9-2,2v26c0,1.1,0.9,2,2,2h34c1.1,0,2-0.9,2-2V12C43,10.9,42.1,10,41,10z"/>
  <path fill="#FFFFFF" d="M11 15L17 15 17 33 11 33z M20 15L26 15 26 33 20 33z M29 15L35 15 35 33 29 33z"/>
  <path fill="#E8F5E9" d="M11,19h6v2h-6V19z M11,23h6v2h-6V23z M11,27h6v2h-6V27z M20,19h6v2h-6V19z M20,23h6v2h-6V23z M20,27h6v2h-6V27z M29,19h6v2h-6V19z M29,23h6v2h-6V23z M29,27h6v2h-6V27z"/>
</svg>
